<svg id="bin" xmlns="http://www.w3.org/2000/svg" width="15.382" height="20.124" viewBox="0 0 15.382 20.124">
  <path id="Path_25" data-name="Path 25" d="M222.842,154.7a.444.444,0,0,0-.444.444v8.383a.444.444,0,1,0,.887,0v-8.383A.444.444,0,0,0,222.842,154.7Zm0,0" transform="translate(-212.534 -146.657)" fill="#bdbdbd"/>
  <path id="Path_26" data-name="Path 26" d="M104.842,154.7a.444.444,0,0,0-.444.444v8.383a.444.444,0,0,0,.887,0v-8.383A.444.444,0,0,0,104.842,154.7Zm0,0" transform="translate(-99.768 -146.657)" fill="#bdbdbd"/>
  <path id="Path_27" data-name="Path 27" d="M1.257,5.99V17.6a2.692,2.692,0,0,0,.651,1.793,2.126,2.126,0,0,0,1.585.728h8.392a2.125,2.125,0,0,0,1.585-.728,2.692,2.692,0,0,0,.651-1.793V5.99a1.8,1.8,0,0,0,1.245-1.973,1.733,1.733,0,0,0-1.68-1.567H11.414V1.86A1.912,1.912,0,0,0,10.9.539,1.691,1.691,0,0,0,9.657,0H5.719a1.691,1.691,0,0,0-1.245.54A1.912,1.912,0,0,0,3.962,1.86v.589H1.691A1.733,1.733,0,0,0,.011,4.017,1.8,1.8,0,0,0,1.257,5.99ZM11.884,19.18H3.492A1.459,1.459,0,0,1,2.144,17.6V6.031H13.232V17.6A1.459,1.459,0,0,1,11.884,19.18ZM4.849,1.86A.937.937,0,0,1,5.1,1.205.829.829,0,0,1,5.719.941H9.657a.829.829,0,0,1,.618.264.937.937,0,0,1,.252.655v.589H4.849ZM1.691,3.392H13.685a.824.824,0,0,1,.8.848.824.824,0,0,1-.8.848H1.691a.824.824,0,0,1-.8-.848A.824.824,0,0,1,1.691,3.392Zm0,0" transform="translate(0.003 0.001)" fill="#bdbdbd"/>
  <path id="Path_28" data-name="Path 28" d="M163.842,154.7a.444.444,0,0,0-.444.444v8.383a.444.444,0,0,0,.887,0v-8.383A.444.444,0,0,0,163.842,154.7Zm0,0" transform="translate(-156.151 -146.657)" fill="#bdbdbd"/>
</svg>
