<svg id="Certificate_Approved" xmlns="http://www.w3.org/2000/svg" width="43.942" height="44" viewBox="0 0 43.942 44">
  <g id="Group_296" data-name="Group 296">
    <path id="Path_1026" data-name="Path 1026" d="M44.322,36.47,35.354,27.5a15.983,15.983,0,0,0,3.78-10.368c0-.419-.016-.857-.048-1.26a1.466,1.466,0,0,0-2.923.233c.025.329.038.685.038,1.027A13.086,13.086,0,0,1,32.3,26.5a13.188,13.188,0,0,1-11.717,3.605A13.2,13.2,0,0,1,9.8,17.133a13.2,13.2,0,0,1,22.585-9.28,1.466,1.466,0,0,0,2.086-2.062A16.129,16.129,0,0,0,10.607,27.453L1.43,36.63a1.466,1.466,0,0,0,1.037,2.5h4.4v4.4a1.466,1.466,0,0,0,2.5,1.037L20.838,33.1A16.01,16.01,0,0,0,23,33.267a15.793,15.793,0,0,0,2.089-.15L36.542,44.57a1.466,1.466,0,0,0,2.5-1.037v-4.4H43.46a1.467,1.467,0,0,0,.862-2.663ZM9.8,39.993V37.667A1.467,1.467,0,0,0,8.333,36.2H6.007l6.669-6.669c.091.075.188.141.279.214.226.182.455.359.689.527.135.1.273.188.411.28.23.154.462.3.7.444q.216.13.436.251.365.2.739.384c.145.07.289.142.436.208.273.123.55.235.829.342.1.038.2.085.3.122ZM37.579,36.2a1.467,1.467,0,0,0-1.467,1.467v2.326l-7.671-7.672c.111-.04.219-.092.33-.135.263-.1.524-.2.782-.318.16-.072.317-.15.475-.224.238-.116.472-.235.7-.362.157-.087.312-.175.466-.265.229-.135.452-.276.673-.422.147-.1.292-.192.434-.293.232-.164.458-.337.681-.515.094-.075.194-.141.286-.217L39.9,36.2Z" transform="translate(-1 -1)" fill="#346b6d"/>
    <path id="Path_1027" data-name="Path 1027" d="M12.161,12.772a1.466,1.466,0,0,0-2,2.141L17.95,22.2a1.463,1.463,0,0,0,2,0L35.628,7.537a1.466,1.466,0,1,0-2-2.141L18.952,19.124Z" transform="translate(3.057 0.867)" fill="#346b6d"/>
  </g>
</svg>
