<svg xmlns="http://www.w3.org/2000/svg" width="83.709" height="73.593" viewBox="0 0 83.709 73.593">
  <g id="check-4" transform="translate(0.5 0.609)">
    <g id="Group_3646" data-name="Group 3646">
      <g id="Group_3645" data-name="Group 3645">
        <path id="Path_12217" data-name="Path 12217" d="M67.211,73.113a1.318,1.318,0,0,0-1.318,1.318V117.9H2.636V54.647H55.35a1.318,1.318,0,1,0,0-2.636H1.318A1.318,1.318,0,0,0,0,53.329v65.893a1.318,1.318,0,0,0,1.318,1.318H67.211a1.318,1.318,0,0,0,1.318-1.318V74.43A1.318,1.318,0,0,0,67.211,73.113Z" transform="translate(0 -48.056)" fill="#2e7d32" stroke="#2e7d32" stroke-width="1"/>
        <path id="Path_12218" data-name="Path 12218" d="M122.137,28.4a1.35,1.35,0,0,0-1.891-.021L67.83,78.8,50.057,58.764a1.348,1.348,0,0,0-1.872-.246,1.308,1.308,0,0,0-.131,1.981l18.7,21.086a1.343,1.343,0,0,0,.946.451h.053a1.345,1.345,0,0,0,.935-.374l53.428-51.4A1.307,1.307,0,0,0,122.137,28.4Z" transform="translate(-39.809 -28)" fill="#2e7d32" stroke="#2e7d32" stroke-width="1"/>
      </g>
    </g>
  </g>
</svg>
