<svg id="Group_3050" data-name="Group 3050" xmlns="http://www.w3.org/2000/svg" width="24" height="24" viewBox="0 0 24 24">
  <rect id="Rectangle_307" data-name="Rectangle 307" width="24" height="24" fill="none"/>
  <g id="phone-call_3_" data-name="phone-call (3)" transform="translate(1.959 1.959)">
    <g id="Group_3040" data-name="Group 3040">
      <path id="Path_1397" data-name="Path 1397" d="M20.055,14.708l-2.8-2.8a1.866,1.866,0,0,0-3.1.7,1.908,1.908,0,0,1-2.2,1.2,8.634,8.634,0,0,1-5.2-5.194,1.81,1.81,0,0,1,1.2-2.2,1.859,1.859,0,0,0,.7-3.1l-2.8-2.8a2,2,0,0,0-2.7,0l-1.9,1.9c-1.9,2,.2,7.292,4.9,11.986S16.151,21.3,18.153,19.3l1.9-1.9A1.992,1.992,0,0,0,20.055,14.708Z" transform="translate(-0.539 0)" fill="#346b6d"/>
    </g>
  </g>
</svg>
