<svg xmlns="http://www.w3.org/2000/svg" width="24" height="24" viewBox="0 0 24 24">
  <g id="Group_7" data-name="Group 7" transform="translate(-2484 131)">
    <rect id="Rectangle_2" data-name="Rectangle 2" width="24" height="24" transform="translate(2484 -131)" fill="none"/>
    <g id="shopping-bag" transform="translate(2435.208 -128.965)">
      <g id="Group_2" data-name="Group 2" transform="translate(53.02)">
        <g id="Group_1" data-name="Group 1">
          <path id="Path_3" data-name="Path 3" d="M68.878,16.356,67.984,5.195a1.4,1.4,0,0,0-1.4-1.282H64.822V3.834a3.868,3.868,0,0,0-7.737,0v.079H55.32a1.4,1.4,0,0,0-1.4,1.281L53.03,16.358a3.222,3.222,0,0,0,.858,2.442,3.282,3.282,0,0,0,2.391,1.035h9.35A3.282,3.282,0,0,0,68.02,18.8,3.223,3.223,0,0,0,68.878,16.356ZM58.258,3.834a2.7,2.7,0,0,1,5.392,0v.079H58.258Zm8.9,14.176a2.073,2.073,0,0,1-1.531.663h-9.35a2.073,2.073,0,0,1-1.531-.663,2.034,2.034,0,0,1-.55-1.562l.894-11.164a.229.229,0,0,1,.228-.209h1.765V6.505a.586.586,0,0,0,1.172,0V5.074H63.65V6.505a.586.586,0,0,0,1.172,0V5.074h1.765a.229.229,0,0,1,.228.211l.894,11.161A2.036,2.036,0,0,1,67.16,18.01Z" transform="translate(-53.02)" fill="#fff"/>
        </g>
      </g>
    </g>
  </g>
</svg>
