<svg xmlns="http://www.w3.org/2000/svg" width="24" height="24" viewBox="0 0 24 24">
  <g id="Group_3049" data-name="Group 3049" transform="translate(-19460 -1293)">
    <rect id="Rectangle_306" data-name="Rectangle 306" width="24" height="24" transform="translate(19460 1293)" fill="none"/>
    <g id="tool" transform="translate(19391.678 1295)">
      <path id="Path_1396" data-name="Path 1396" d="M80.733,0a7.163,7.163,0,0,0-7.41,7.158c0,4.583,4.4,7.908,6.863,12.691a.338.338,0,0,0,.6,0c2.23-4.3,6.041-7.189,6.747-11.336A7.266,7.266,0,0,0,80.733,0Zm-.248,10.91a3.752,3.752,0,1,1,3.752-3.752A3.752,3.752,0,0,1,80.485,10.914Z" transform="translate(0 0)" fill="#346b6d"/>
    </g>
  </g>
</svg>
