<svg id="Group_7104" data-name="Group 7104" xmlns="http://www.w3.org/2000/svg" width="24" height="24" viewBox="0 0 24 24">
  <rect id="Rectangle_1120" data-name="Rectangle 1120" width="24" height="24" fill="none"/>
  <path id="Path_12705" data-name="Path 12705" d="M1.5,15.674,5.345,13.11a1.122,1.122,0,0,1,1.5.244l1.12,1.44a.479.479,0,0,0,.614.129l.213-.117a12.878,12.878,0,0,0,3.356-2.636,12.93,12.93,0,0,0,2.636-3.356L14.9,8.6a.479.479,0,0,0-.127-.616l-1.439-1.12a1.123,1.123,0,0,1-.244-1.5l2.565-3.846a1.117,1.117,0,0,1,1.505-.339l1.608.966a2.268,2.268,0,0,1,1.034,1.342c.579,2.11.143,5.751-5.221,11.116-4.267,4.267-7.444,5.414-9.627,5.414a5.61,5.61,0,0,1-1.488-.194,2.266,2.266,0,0,1-1.342-1.034L1.16,17.18A1.117,1.117,0,0,1,1.5,15.674Zm.207,1.181.965,1.608a1.636,1.636,0,0,0,.966.748c1.948.535,5.351.092,10.5-5.058S19.73,5.6,19.2,3.654a1.639,1.639,0,0,0-.749-.967l-1.608-.965a.484.484,0,0,0-.653.147L14.791,3.96,13.622,5.714a.487.487,0,0,0,.106.652l1.44,1.12a1.108,1.108,0,0,1,.293,1.422l-.114.208a13.432,13.432,0,0,1-2.744,3.5,13.446,13.446,0,0,1-3.5,2.744l-.208.115a1.108,1.108,0,0,1-1.422-.293l-1.12-1.44a.488.488,0,0,0-.652-.106L1.853,16.2A.484.484,0,0,0,1.706,16.855Z" transform="translate(1.5 1.482)" fill="#bdbdbd" stroke="#bdbdbd" stroke-width="0.5"/>
</svg>
