<svg xmlns="http://www.w3.org/2000/svg" width="24" height="24" viewBox="0 0 24 24">
  <g id="Group_3053" data-name="Group 3053" transform="translate(-19700 -1559)">
    <rect id="Rectangle_308" data-name="Rectangle 308" width="24" height="24" transform="translate(19700 1559)" fill="none"/>
    <g id="message_2_" data-name="message (2)" transform="translate(19702 1475.988)">
      <g id="Group_3042" data-name="Group 3042" transform="translate(12.992 89.668)">
        <g id="Group_3041" data-name="Group 3041" transform="translate(0 0)">
          <path id="Path_1398" data-name="Path 1398" d="M338.705,105.876l-7,5.826,7.008,4.664V106.007A.79.79,0,0,0,338.705,105.876Z" transform="translate(-331.709 -105.876)" fill="#346b6d"/>
        </g>
      </g>
      <g id="Group_3044" data-name="Group 3044" transform="translate(0 96.019)">
        <g id="Group_3043" data-name="Group 3043" transform="translate(0 0)">
          <path id="Path_1399" data-name="Path 1399" d="M12.323,269.264l-.886.734a2.254,2.254,0,0,1-2.874,0l-.886-.734L0,274.348v.1a.79.79,0,0,0,.791.787H19.209a.79.79,0,0,0,.791-.787v-.1Z" transform="translate(0 -269.264)" fill="#346b6d"/>
        </g>
      </g>
      <g id="Group_3046" data-name="Group 3046" transform="translate(0.667 89.012)">
        <g id="Group_3045" data-name="Group 3045" transform="translate(0 0)">
          <path id="Path_1400" data-name="Path 1400" d="M35.7,89.012H17.265a.12.12,0,0,0-.074.213l7.24,6,0,0,1.116.924a1.461,1.461,0,0,0,1.863,0l8.358-6.923A.12.12,0,0,0,35.7,89.012Z" transform="translate(-17.147 -89.012)" fill="#346b6d"/>
        </g>
      </g>
      <g id="Group_3048" data-name="Group 3048" transform="translate(0 89.668)">
        <g id="Group_3047" data-name="Group 3047" transform="translate(0 0)">
          <path id="Path_1401" data-name="Path 1401" d="M.012,105.876a.786.786,0,0,0-.012.131v10.359L7.008,111.7Z" transform="translate(0 -105.876)" fill="#346b6d"/>
        </g>
      </g>
    </g>
  </g>
</svg>
