<svg xmlns="http://www.w3.org/2000/svg" width="67" height="67" viewBox="0 0 67 67">
  <g id="Group_3057" data-name="Group 3057" transform="translate(-578 -890)">
    <g id="Group_3055" data-name="Group 3055" transform="translate(-18883.713 -406)">
      <rect id="Rectangle_306" data-name="Rectangle 306" width="67" height="67" transform="translate(19461.713 1296)" fill="none"/>
      <g id="tool" transform="translate(19472.424 1298.085)">
        <path id="Path_1396" data-name="Path 1396" d="M95.874.013A21.827,21.827,0,0,0,73.323,21.861C73.323,35.847,86.706,46,94.208,60.6a1.028,1.028,0,0,0,1.827,0c6.786-13.135,18.384-21.943,20.534-34.6C118.794,12.905,109.111.46,95.874.013Zm-.754,33.3a11.451,11.451,0,1,1,11.418-11.451A11.434,11.434,0,0,1,95.12,33.311Z" transform="translate(-73.323 0)" fill="#346b6d"/>
      </g>
    </g>
  </g>
</svg>
