<svg xmlns="http://www.w3.org/2000/svg" width="24" height="24" viewBox="0 0 24 24">
  <g id="Group_83" data-name="Group 83" transform="translate(-1564 -568.002)">
    <rect id="Rectangle_53" data-name="Rectangle 53" width="24" height="24" transform="translate(1564 568.002)" fill="none"/>
    <g id="instagram_2_" data-name="instagram (2)" transform="translate(1566 570.002)">
      <path id="Path_500" data-name="Path 500" d="M14.586,0H5.414A5.42,5.42,0,0,0,0,5.414v9.173A5.42,5.42,0,0,0,5.414,20h9.173A5.42,5.42,0,0,0,20,14.586V5.414A5.42,5.42,0,0,0,14.586,0ZM10,15.469A5.469,5.469,0,1,1,15.469,10,5.475,5.475,0,0,1,10,15.469Zm5.6-9.648a1.616,1.616,0,1,1,1.616-1.616A1.618,1.618,0,0,1,15.6,5.821Zm0,0" transform="translate(0 0)" fill="#f5f5f5"/>
      <path id="Path_501" data-name="Path 501" d="M150.389,146.019a4.37,4.37,0,1,0,4.37,4.37A4.375,4.375,0,0,0,150.389,146.019Zm0,0" transform="translate(-140.389 -140.389)" fill="#f5f5f5"/>
      <path id="Path_502" data-name="Path 502" d="M388.443,96.3a.451.451,0,1,0,.451.451A.452.452,0,0,0,388.443,96.3Zm0,0" transform="translate(-372.848 -92.542)" fill="#f5f5f5"/>
    </g>
    <g id="instagram_2_2" data-name="instagram (2)" transform="translate(1566 570.002)">
      <path id="Path_500-2" data-name="Path 500" d="M14.586,0H5.414A5.42,5.42,0,0,0,0,5.414v9.173A5.42,5.42,0,0,0,5.414,20h9.173A5.42,5.42,0,0,0,20,14.586V5.414A5.42,5.42,0,0,0,14.586,0ZM10,15.469A5.469,5.469,0,1,1,15.469,10,5.475,5.475,0,0,1,10,15.469Zm5.6-9.648a1.616,1.616,0,1,1,1.616-1.616A1.618,1.618,0,0,1,15.6,5.821Zm0,0" transform="translate(0 0)" fill="#9e9e9e"/>
      <path id="Path_501-2" data-name="Path 501" d="M150.389,146.019a4.37,4.37,0,1,0,4.37,4.37A4.375,4.375,0,0,0,150.389,146.019Zm0,0" transform="translate(-140.389 -140.389)" fill="#9e9e9e"/>
      <path id="Path_502-2" data-name="Path 502" d="M388.443,96.3a.451.451,0,1,0,.451.451A.452.452,0,0,0,388.443,96.3Zm0,0" transform="translate(-372.848 -92.542)" fill="#9e9e9e"/>
    </g>
  </g>
</svg>
