<svg id="headphone" xmlns="http://www.w3.org/2000/svg" width="52.26" height="48" viewBox="0 0 52.26 48">
  <path id="Path_1023" data-name="Path 1023" d="M47.207,27.068A5.233,5.233,0,0,0,43.8,22.979v-.3a15.674,15.674,0,1,0-31.348,0v.3a5.233,5.233,0,0,0-3.411,4.093,7.837,7.837,0,0,0,0,15.594,5.225,5.225,0,0,0,10.377-.834V27.9a5.225,5.225,0,0,0-3.483-4.92v-.3a12.191,12.191,0,0,1,24.382,0v.3A5.225,5.225,0,0,0,36.83,27.9V41.831a5.225,5.225,0,0,0,3.483,4.92v2.917a1.742,1.742,0,0,1-1.742,1.742H33.347v3.483h5.225A5.23,5.23,0,0,0,43.8,49.668V46.751a5.233,5.233,0,0,0,3.411-4.093,7.837,7.837,0,0,0,0-15.594Zm-41.725,7.8A4.361,4.361,0,0,1,8.965,30.6v8.534a4.361,4.361,0,0,1-3.483-4.267Zm10.449,6.966a1.742,1.742,0,0,1-3.483,0V27.9a1.742,1.742,0,0,1,3.483,0Zm27.865,0a1.742,1.742,0,0,1-3.483,0V27.9a1.742,1.742,0,0,1,3.483,0Zm3.483-2.7V30.6a4.354,4.354,0,0,1,0,8.534Z" transform="translate(-1.992 -7)" fill="#346b6d"/>
  <rect id="Rectangle_92" data-name="Rectangle 92" width="4" height="4" transform="translate(24.244 44)" fill="#346b6d"/>
</svg>
