<svg id="Layer_2" xmlns="http://www.w3.org/2000/svg" width="64" height="41.974" viewBox="0 0 64 41.974">
  <g id="Group_295" data-name="Group 295">
    <path id="Path_1024" data-name="Path 1024" d="M93.72,164.216V179.3a1.414,1.414,0,0,0,1.4,1.4h4.7a6.765,6.765,0,0,0,13.1,0h18.1a6.765,6.765,0,0,0,13.1,0H147.6a1.414,1.414,0,0,0,1.4-1.4v-13.23a1.336,1.336,0,0,0-.262-.8l-4.866-6.868a1.4,1.4,0,0,0-1.142-.6H132.588v-4.416a1.414,1.414,0,0,0-1.4-1.4H105.323a10.269,10.269,0,1,0-11.6,12.239Zm12.65,18.751A3.967,3.967,0,1,1,110.338,179,3.969,3.969,0,0,1,106.371,182.967Zm31.2,0A3.967,3.967,0,1,1,141.533,179,3.969,3.969,0,0,1,137.566,182.967Zm8.627-16.43v.225h-7.635v-6.138H142Zm-10.442-5.913v7.542a1.414,1.414,0,0,0,1.4,1.4h9.039V177.9h-1.946a6.765,6.765,0,0,0-11.658-3.481V160.623Zm-5.97,17.291h-16.73a6.771,6.771,0,0,0-13.361,0H96.527V164.273a10.277,10.277,0,0,0,8.982-9.469h24.271ZM95.274,146.626a7.467,7.467,0,1,1-7.467,7.467A7.475,7.475,0,0,1,95.274,146.626Z" transform="translate(-85 -143.8)" fill="#346b6d"/>
    <path id="Path_1025" data-name="Path 1025" d="M116.671,186.313a1.4,1.4,0,0,0,1.984,0l4.4-4.4a1.4,1.4,0,0,0-1.984-1.984l-3.406,3.406-1.647-1.647a1.4,1.4,0,1,0-1.984,1.984Z" transform="translate(-108.268 -172.84)" fill="#346b6d"/>
  </g>
</svg>
