<svg xmlns="http://www.w3.org/2000/svg" width="18.131" height="17.227" viewBox="0 0 18.131 17.227">
  <path id="Path_1389" data-name="Path 1389" d="M17.343,9.035,12.35,8.563a.863.863,0,0,1-.715-.529L9.846,3.7a.856.856,0,0,0-1.588,0L6.483,8.034a.845.845,0,0,1-.715.529L.775,9.035a.863.863,0,0,0-.486,1.5l3.763,3.3a.856.856,0,0,1,.272.844l-1.13,4.635a.863.863,0,0,0,1.273.944L8.63,17.82a.866.866,0,0,1,.873,0l4.164,2.447a.86.86,0,0,0,1.273-.944l-1.116-4.635a.856.856,0,0,1,.272-.844l3.763-3.3A.874.874,0,0,0,17.343,9.035Z" transform="translate(0 -3.162)" fill="#ffc107"/>
</svg>
