<svg xmlns="http://www.w3.org/2000/svg" width="14.579" height="20.734" viewBox="0 0 14.579 20.734">
  <g id="placeholder" transform="translate(-76)">
    <g id="Group_4705" data-name="Group 4705" transform="translate(76)">
      <g id="Group_4704" data-name="Group 4704">
        <path id="Path_12222" data-name="Path 12222" d="M83.289,0a7.291,7.291,0,0,0-6.2,11.122l5.786,9.325a.607.607,0,0,0,.516.287h0a.607.607,0,0,0,.516-.3l5.639-9.415A7.291,7.291,0,0,0,83.289,0Zm5.219,10.4-5.127,8.56-5.261-8.477A6.078,6.078,0,1,1,88.508,10.4Z" transform="translate(-76)" fill="#de9284"/>
      </g>
    </g>
    <g id="Group_4707" data-name="Group 4707" transform="translate(79.645 3.645)">
      <g id="Group_4706" data-name="Group 4706">
        <path id="Path_12223" data-name="Path 12223" d="M169.645,90a3.645,3.645,0,1,0,3.645,3.645A3.649,3.649,0,0,0,169.645,90Zm0,6.083a2.438,2.438,0,1,1,2.434-2.438A2.44,2.44,0,0,1,169.645,96.083Z" transform="translate(-166 -90)" fill="#de9284"/>
      </g>
    </g>
  </g>
</svg>
